<?xml version="1.0" encoding="UTF-8" ?>
<!DOCTYPE svg PUBLIC "-//W3C//DTD SVG 1.1//EN" "http://www.w3.org/Graphics/SVG/1.1/DTD/svg11.dtd">
<svg width="512pt" height="512pt" viewBox="0 0 512 512" version="1.1" xmlns="http://www.w3.org/2000/svg">
<g id="#fefefeff">
<path fill="#fefefe" opacity="1.00" d=" M 151.31 0.00 L 360.72 0.00 C 380.87 0.25 401.09 2.49 420.46 8.23 C 431.52 10.81 441.69 16.08 451.65 21.39 C 466.40 30.49 479.36 42.67 488.63 57.36 C 506.30 85.16 511.47 118.83 512.00 151.24 L 512.00 361.68 C 511.40 381.09 509.87 400.71 504.18 419.38 C 497.82 442.23 485.61 463.97 467.27 479.29 C 455.70 489.62 441.62 496.68 427.10 501.91 C 405.81 509.28 383.16 511.79 360.72 512.00 L 151.24 512.00 C 131.95 511.75 112.55 510.02 93.95 504.69 C 72.39 498.79 51.82 487.91 36.43 471.50 C 25.36 459.81 16.99 445.67 11.46 430.58 C 3.02 408.34 0.48 384.39 0.00 360.74 L 0.00 150.30 C 0.50 131.70 2.09 112.97 7.19 95.01 C 12.47 74.86 22.05 55.53 36.64 40.50 C 50.32 25.85 68.23 15.60 87.18 9.39 C 107.96 3.09 129.62 0.12 151.31 0.00 M 82.51 55.52 C 67.71 66.45 58.28 84.46 58.36 102.94 C 58.40 120.16 58.31 137.38 58.40 154.60 C 58.36 174.60 58.33 194.60 58.41 214.59 C 58.37 231.59 58.35 248.59 58.40 265.58 C 58.35 276.07 58.40 286.56 58.37 297.04 C 58.66 311.28 63.99 325.60 73.91 335.94 C 83.88 346.71 98.12 353.88 112.87 354.43 C 135.89 354.80 158.96 354.43 182.00 354.62 C 240.76 354.49 299.56 354.80 358.29 354.53 C 356.90 345.45 354.92 336.49 353.44 327.43 C 306.37 327.25 259.28 327.36 212.21 327.39 C 180.17 327.28 148.12 327.37 116.08 327.35 C 106.10 327.18 96.87 321.52 91.18 313.49 C 88.01 308.87 86.19 303.39 85.63 297.84 C 85.39 279.09 85.63 260.34 85.50 241.59 C 85.57 221.58 85.55 201.56 85.51 181.55 C 85.58 169.44 85.58 157.33 85.51 145.22 C 85.67 131.18 85.46 117.13 85.61 103.08 C 85.95 88.67 96.87 75.36 110.93 72.18 C 118.09 71.02 125.37 71.81 132.59 71.52 C 155.27 71.57 177.96 71.58 200.64 71.52 C 229.56 71.59 258.48 71.59 287.41 71.53 C 320.38 71.59 353.36 71.62 386.33 71.53 C 391.58 71.80 396.91 71.09 402.11 72.18 C 408.78 73.59 414.83 77.36 419.35 82.42 C 423.91 87.63 426.74 94.24 427.66 101.03 C 427.78 166.01 427.62 231.00 427.69 295.99 C 427.70 300.86 426.07 305.50 424.09 309.89 C 430.58 314.67 437.87 318.79 444.55 323.51 C 445.52 323.99 446.45 325.40 447.67 324.86 C 452.22 315.61 455.19 305.37 454.81 294.98 C 454.86 253.64 454.77 212.30 454.81 170.96 C 454.94 152.31 454.81 133.66 454.83 115.00 C 454.73 105.97 455.53 96.73 452.84 87.96 C 450.78 80.10 447.01 72.74 442.05 66.31 C 432.08 54.06 417.19 45.42 401.35 44.30 C 399.25 44.01 397.12 44.07 395.01 44.07 C 372.46 44.10 349.91 44.02 327.36 44.12 C 285.55 44.05 243.73 44.07 201.92 44.09 C 172.61 44.05 143.29 44.13 113.98 44.12 C 102.63 44.50 91.62 48.87 82.51 55.52 M 221.29 105.12 C 217.76 112.44 222.06 121.82 229.55 124.57 C 229.60 128.73 229.52 132.88 229.58 137.03 C 233.25 136.90 236.99 137.31 240.63 136.83 C 240.53 132.85 240.59 128.88 240.57 124.91 C 243.01 123.10 246.26 121.55 247.64 118.48 C 252.28 111.45 248.93 101.03 241.34 97.63 C 234.16 93.78 224.22 97.49 221.29 105.12 M 193.25 150.43 C 169.64 151.84 149.08 172.41 147.78 196.03 C 147.62 207.33 147.76 218.64 147.71 229.95 C 148.22 254.98 170.93 277.15 196.01 276.83 C 223.01 276.79 250.00 276.88 277.00 276.78 C 300.61 275.68 321.30 254.97 322.50 231.36 C 322.72 219.45 322.75 207.51 322.52 195.60 C 321.15 171.37 299.25 150.73 275.07 150.31 C 247.80 150.34 220.51 150.13 193.25 150.43 M 120.52 202.96 C 120.47 210.29 120.45 217.62 120.61 224.95 C 121.20 232.61 127.92 239.48 135.75 239.59 C 133.78 226.19 134.95 212.54 134.64 199.02 C 134.30 194.84 135.72 190.70 135.62 186.59 C 127.35 187.24 120.21 194.55 120.52 202.96 M 335.52 195.31 C 335.60 206.91 335.54 218.51 335.55 230.11 C 335.54 233.33 334.62 236.45 334.26 239.65 C 341.94 239.26 348.98 232.81 349.48 225.04 C 349.71 219.38 349.52 213.71 349.58 208.05 C 349.49 204.37 349.90 200.56 348.53 197.05 C 346.57 191.09 340.70 187.46 334.71 186.56 C 333.98 189.25 335.55 192.41 335.52 195.31 M 375.94 252.17 C 374.50 258.78 373.32 265.42 371.84 272.00 C 371.21 274.80 374.08 277.75 376.95 276.93 C 380.27 276.49 381.31 272.68 381.28 269.82 C 382.24 266.28 382.75 262.63 383.73 259.09 C 384.05 256.45 385.29 253.78 383.82 251.23 C 381.56 248.72 377.61 249.32 375.94 252.17 M 341.36 259.38 C 338.37 260.04 336.41 263.95 338.57 266.43 C 342.54 271.80 346.69 277.03 350.59 282.44 C 353.70 285.77 359.54 281.15 357.78 277.27 C 353.98 271.75 349.83 266.49 346.10 260.93 C 344.85 259.91 343.04 258.55 341.36 259.38 M 407.51 267.61 C 402.96 270.59 399.02 274.46 394.67 277.75 C 392.89 279.56 389.82 280.99 390.04 283.95 C 389.84 286.66 392.56 288.43 394.98 288.70 C 399.81 285.75 403.87 281.68 408.44 278.34 C 410.37 276.57 413.59 275.13 413.33 272.04 C 413.72 269.05 410.22 266.45 407.51 267.61 M 362.34 301.09 C 365.16 314.88 367.71 328.69 370.41 342.49 C 373.81 360.64 377.26 378.82 380.20 397.06 C 381.31 400.21 380.62 404.18 383.70 406.34 C 386.53 408.71 390.90 407.94 393.18 405.21 C 396.68 400.72 400.11 396.18 403.50 391.61 C 404.83 390.28 405.55 388.44 407.04 387.28 C 408.46 387.00 409.54 387.42 410.28 388.55 C 416.91 399.01 423.49 409.51 430.17 419.94 C 431.80 422.67 435.54 423.64 438.43 422.49 C 443.29 419.91 447.67 416.35 452.29 413.30 C 455.26 411.33 455.87 407.17 454.83 403.98 C 447.96 393.30 441.39 382.45 434.24 371.96 C 433.82 370.22 434.98 368.13 436.91 368.11 C 443.58 365.90 450.39 363.97 457.19 362.10 C 460.19 361.26 462.30 358.00 461.97 354.92 C 461.98 352.05 459.71 349.89 457.43 348.52 C 452.05 345.15 446.84 341.49 441.42 338.22 C 428.44 329.38 415.11 320.99 402.05 312.24 C 392.62 305.89 383.25 299.44 373.69 293.30 C 368.42 290.20 361.47 295.14 362.34 301.09 M 322.34 295.24 C 318.35 296.79 319.19 302.93 323.25 303.77 C 330.16 303.80 337.07 303.94 343.98 303.78 C 346.07 303.66 347.62 301.88 348.20 299.98 C 348.44 296.64 345.09 294.22 341.96 294.79 C 335.45 295.11 328.67 294.17 322.34 295.24 M 100.69 379.70 C 96.21 385.12 94.51 392.09 91.64 398.38 C 86.38 411.73 80.92 425.01 75.61 438.34 C 74.30 442.48 73.34 446.87 74.33 451.20 C 75.89 462.63 85.89 471.80 97.15 473.36 C 100.73 474.02 104.38 473.80 108.00 473.85 C 206.36 473.85 304.73 473.88 403.09 473.85 C 408.76 473.70 414.73 474.42 420.13 472.40 C 428.15 470.02 435.13 463.70 437.76 455.68 C 440.27 449.61 439.43 442.78 437.32 436.73 C 431.00 437.67 424.72 434.82 420.53 430.18 C 420.27 430.20 419.75 430.23 419.49 430.24 C 420.96 433.67 422.19 437.25 423.19 440.88 C 423.34 445.15 420.92 449.40 417.16 451.43 C 413.48 453.52 409.09 453.23 405.00 453.30 C 304.34 453.33 203.67 453.28 103.00 453.32 C 95.85 453.41 88.76 446.79 90.50 439.38 C 96.22 423.59 102.83 408.16 108.58 392.38 C 111.23 385.29 118.47 380.43 125.95 380.20 C 204.97 380.16 284.00 380.24 363.02 380.17 C 362.37 375.88 361.42 371.67 360.66 367.42 C 356.82 366.85 352.85 367.37 348.97 367.15 C 275.33 367.15 201.69 367.10 128.06 367.18 C 117.69 367.07 107.21 371.51 100.69 379.70 M 134.30 392.34 C 129.40 393.45 129.36 399.35 127.64 403.13 C 126.46 405.33 128.84 407.74 130.99 407.91 C 138.03 407.91 145.07 407.91 152.11 407.93 C 154.16 407.90 156.31 406.76 157.21 404.90 C 158.10 401.94 158.97 398.98 159.77 396.00 C 159.43 393.71 157.36 391.92 155.02 392.16 C 148.12 392.26 141.16 391.83 134.30 392.34 M 179.27 392.26 C 174.22 393.24 174.63 399.27 173.46 403.14 C 172.53 405.78 175.40 408.29 177.94 407.92 C 184.92 407.85 191.91 408.04 198.89 407.82 C 203.65 407.12 203.44 401.59 204.14 397.99 C 205.35 395.17 203.00 392.15 200.07 392.13 C 193.14 392.22 186.20 392.00 179.27 392.26 M 223.29 392.40 C 218.79 393.41 220.06 398.62 218.94 401.95 C 217.95 404.80 220.03 407.70 222.99 407.88 C 230.00 407.96 237.02 407.91 244.03 407.91 C 246.55 407.89 249.10 405.68 248.86 403.04 C 248.83 400.35 248.98 397.66 248.78 394.99 C 247.57 392.51 244.53 391.88 242.02 392.13 C 235.79 392.33 229.48 391.78 223.29 392.40 M 268.31 392.22 C 265.58 392.57 263.83 395.37 264.31 398.00 C 264.68 401.44 263.68 406.73 268.17 407.77 C 275.43 408.08 282.74 407.87 290.02 407.89 C 292.25 407.98 294.47 406.29 294.59 403.98 C 294.21 401.33 293.99 398.66 293.65 396.01 C 292.98 393.56 290.53 392.13 288.09 392.17 C 281.49 392.16 274.90 392.06 268.31 392.22 M 312.30 392.39 C 309.78 392.91 308.40 395.85 309.32 398.20 C 310.32 401.62 309.70 406.70 314.16 407.73 C 321.88 407.98 329.75 408.17 337.46 407.63 C 342.01 406.00 339.26 401.10 338.72 397.84 C 338.51 394.87 336.09 392.22 333.06 392.15 C 326.15 392.29 319.17 391.81 312.30 392.39 M 123.42 421.61 C 117.97 422.52 117.52 428.82 115.85 433.03 C 114.63 435.28 116.52 438.01 118.97 438.11 C 124.99 438.30 131.04 438.14 137.07 438.21 C 139.20 438.17 141.51 438.47 143.43 437.31 C 145.46 435.92 145.96 433.33 146.50 431.10 C 147.26 428.83 148.39 426.47 147.78 424.02 C 146.82 422.42 144.96 421.39 143.08 421.59 C 136.52 421.57 129.97 421.52 123.42 421.61 M 168.53 421.63 C 163.13 422.60 163.35 428.75 161.89 432.86 C 160.69 435.51 163.21 438.42 165.98 438.19 C 173.31 438.10 180.66 438.43 187.97 438.04 C 193.03 436.89 192.21 430.73 193.42 426.90 C 194.41 424.15 191.59 421.37 188.89 421.60 C 182.11 421.57 175.32 421.51 168.53 421.63 M 213.53 421.72 C 208.27 422.94 209.30 428.95 208.09 432.94 C 207.04 435.84 210.16 438.49 212.95 438.20 C 242.32 438.16 271.69 438.22 301.06 438.20 C 302.98 438.16 304.67 436.85 305.23 435.02 C 305.39 432.15 304.31 429.41 304.15 426.56 C 303.77 423.61 300.99 421.34 298.03 421.56 C 269.87 421.67 241.69 421.37 213.53 421.72 M 323.50 421.65 C 320.65 422.11 318.80 425.28 320.05 427.97 C 321.35 431.45 320.40 436.94 325.06 437.98 C 332.01 438.48 339.05 438.04 346.04 438.22 C 347.90 438.35 350.21 437.87 351.16 436.09 C 352.32 434.27 351.07 432.16 350.71 430.28 C 349.59 427.91 350.04 424.93 347.97 423.03 C 346.76 422.35 345.49 421.45 344.04 421.56 C 337.19 421.63 330.33 421.45 323.50 421.65 M 368.49 421.73 C 367.70 422.11 366.96 422.55 366.25 423.06 C 364.04 426.34 366.95 429.95 367.47 433.38 C 367.65 436.13 370.27 438.19 372.94 438.21 C 379.98 438.16 387.01 438.26 394.05 438.18 C 396.87 438.13 398.76 434.90 397.41 432.40 C 395.58 428.58 395.55 422.71 390.48 421.69 C 383.16 421.62 375.78 421.34 368.49 421.73 Z" />
</g>
<g id="#03aafeff">
<path fill="#03aafe" opacity="1.00" d=" M 82.51 55.52 C 91.62 48.87 102.63 44.50 113.98 44.12 C 143.29 44.13 172.61 44.05 201.92 44.09 L 202.11 44.85 C 193.71 44.90 185.31 44.81 176.92 45.03 C 175.36 44.71 175.57 47.00 174.19 47.11 C 171.86 47.90 169.46 48.46 167.22 49.50 C 168.08 49.91 168.93 50.32 169.79 50.73 C 164.66 50.77 161.71 55.65 161.17 60.24 C 158.15 65.20 153.35 70.21 147.04 69.86 C 142.30 70.72 136.59 68.19 132.59 71.52 C 125.37 71.81 118.09 71.02 110.93 72.18 C 96.87 75.36 85.95 88.67 85.61 103.08 C 85.46 117.13 85.67 131.18 85.51 145.22 C 84.64 142.55 84.56 139.74 84.51 136.95 C 83.72 141.13 83.39 145.37 82.70 149.56 C 82.35 149.29 81.66 148.74 81.31 148.46 C 80.63 149.33 80.11 150.30 79.49 151.21 C 76.36 152.21 71.87 151.28 70.64 155.26 C 70.34 155.17 69.74 154.97 69.44 154.88 C 67.46 155.74 65.49 156.65 63.51 157.53 C 62.05 161.20 62.96 165.77 60.25 169.01 C 59.19 164.30 61.83 158.53 58.40 154.60 C 58.31 137.38 58.40 120.16 58.36 102.94 C 58.28 84.46 67.71 66.45 82.51 55.52 Z" />
</g>
<g id="#108bfeff">
<path fill="#108bfe" opacity="1.00" d=" M 201.92 44.09 C 243.73 44.07 285.55 44.05 327.36 44.12 C 325.94 44.51 324.54 45.03 323.06 45.04 C 313.35 45.11 303.60 44.84 293.91 45.25 C 293.56 45.87 293.22 46.48 292.87 47.10 C 289.71 47.90 286.48 48.51 283.29 49.19 C 284.26 50.12 285.25 51.05 286.20 52.02 C 284.87 53.83 282.47 53.20 280.57 53.60 C 279.20 54.56 278.13 55.88 277.06 57.14 C 277.50 57.32 278.38 57.67 278.82 57.85 C 278.87 58.22 278.96 58.97 279.01 59.35 C 277.75 59.39 276.49 59.35 275.24 59.40 C 274.76 60.71 275.93 61.66 276.47 62.71 C 276.01 63.96 274.53 64.15 273.54 64.81 C 273.35 65.61 273.28 66.43 273.10 67.24 C 269.15 68.37 264.77 67.84 261.05 69.72 C 267.02 70.14 273.03 70.00 279.02 70.09 C 281.85 70.21 285.13 69.32 287.41 71.53 C 258.48 71.59 229.56 71.59 200.64 71.52 C 203.45 68.70 207.76 70.53 211.27 69.82 C 211.74 68.37 211.66 66.58 212.97 65.56 C 213.56 65.82 214.15 66.08 214.74 66.32 C 215.35 64.81 215.76 63.18 216.77 61.86 C 217.27 62.62 217.73 63.40 218.24 64.16 C 220.57 64.47 221.25 61.83 222.51 60.44 C 223.25 58.94 225.08 59.68 226.39 59.41 C 228.34 57.21 229.36 54.44 230.70 51.87 C 231.77 51.62 232.88 51.50 233.97 51.28 C 233.43 50.17 232.83 49.08 232.33 47.95 C 233.63 47.81 234.96 47.94 236.20 47.43 C 236.58 48.15 236.90 48.90 237.24 49.64 C 237.65 47.48 241.49 47.47 240.80 45.25 C 227.94 44.54 215.00 45.13 202.11 44.85 L 201.92 44.09 Z" />
</g>
<g id="#177dfdff">
<path fill="#177dfd" opacity="1.00" d=" M 327.36 44.12 C 349.91 44.02 372.46 44.10 395.01 44.07 C 397.12 44.07 399.25 44.01 401.35 44.30 C 398.35 45.15 395.22 44.81 392.17 45.20 C 390.15 45.72 389.94 48.46 387.91 48.98 C 385.42 50.16 383.00 47.93 380.46 48.46 C 380.38 49.18 380.30 49.91 380.22 50.64 C 377.58 52.68 373.51 52.03 371.48 55.06 C 371.79 55.60 372.10 56.14 372.42 56.68 C 371.92 56.89 370.93 57.32 370.43 57.53 C 370.31 58.68 370.32 59.83 370.28 60.98 C 369.34 60.57 368.42 60.10 367.48 59.71 C 365.30 62.73 362.74 65.57 359.42 67.37 C 353.84 69.30 347.86 68.67 342.08 69.10 C 342.68 70.57 344.74 69.81 345.97 70.15 C 358.63 70.34 371.30 70.05 383.95 70.31 C 384.55 70.61 385.74 71.23 386.33 71.53 C 353.36 71.62 320.38 71.59 287.41 71.53 C 285.13 69.32 281.85 70.21 279.02 70.09 C 273.03 70.00 267.02 70.14 261.05 69.72 C 264.77 67.84 269.15 68.37 273.10 67.24 C 273.28 66.43 273.35 65.61 273.54 64.81 C 274.53 64.15 276.01 63.96 276.47 62.71 C 275.93 61.66 274.76 60.71 275.24 59.40 C 276.49 59.35 277.75 59.39 279.01 59.35 C 278.96 58.97 278.87 58.22 278.82 57.85 C 278.38 57.67 277.50 57.32 277.06 57.14 C 278.13 55.88 279.20 54.56 280.57 53.60 C 282.47 53.20 284.87 53.83 286.20 52.02 C 285.25 51.05 284.26 50.12 283.29 49.19 C 286.48 48.51 289.71 47.90 292.87 47.10 C 293.22 46.48 293.56 45.87 293.91 45.25 C 303.60 44.84 313.35 45.11 323.06 45.04 C 324.54 45.03 325.94 44.51 327.36 44.12 Z" />
</g>
<g id="#0797feff">
<path fill="#0797fe" opacity="1.00" d=" M 174.19 47.11 C 175.57 47.00 175.36 44.71 176.92 45.03 C 185.31 44.81 193.71 44.90 202.11 44.85 C 215.00 45.13 227.94 44.54 240.80 45.25 C 241.49 47.47 237.65 47.48 237.24 49.64 C 236.90 48.90 236.58 48.15 236.20 47.43 C 234.96 47.94 233.63 47.81 232.33 47.95 C 232.83 49.08 233.43 50.17 233.97 51.28 C 232.88 51.50 231.77 51.62 230.70 51.87 C 229.36 54.44 228.34 57.21 226.39 59.41 C 225.08 59.68 223.25 58.94 222.51 60.44 C 221.25 61.83 220.57 64.47 218.24 64.16 C 217.73 63.40 217.27 62.62 216.77 61.86 C 215.76 63.18 215.35 64.81 214.74 66.32 C 214.15 66.08 213.56 65.82 212.97 65.56 C 211.66 66.58 211.74 68.37 211.27 69.82 C 207.76 70.53 203.45 68.70 200.64 71.52 C 177.96 71.58 155.27 71.57 132.59 71.52 C 136.59 68.19 142.30 70.72 147.04 69.86 C 153.35 70.21 158.15 65.20 161.17 60.24 C 161.71 55.65 164.66 50.77 169.79 50.73 C 168.93 50.32 168.08 49.91 167.22 49.50 C 169.46 48.46 171.86 47.90 174.19 47.11 Z" />
<path fill="#0797fe" opacity="1.00" d=" M 82.70 149.56 C 83.39 145.37 83.72 141.13 84.51 136.95 C 84.56 139.74 84.64 142.55 85.51 145.22 C 85.58 157.33 85.58 169.44 85.51 181.55 C 83.52 183.62 84.16 186.68 83.14 189.18 C 81.91 191.87 82.71 194.82 82.72 197.64 C 82.20 197.22 81.16 196.39 80.65 195.97 C 80.15 197.71 79.83 199.52 79.20 201.23 C 76.39 202.54 73.77 204.25 71.58 206.44 C 70.84 208.55 70.37 211.14 67.80 211.69 C 66.83 211.02 66.03 210.16 65.13 209.42 C 61.60 212.08 61.98 217.06 62.02 220.99 C 61.94 222.68 62.41 225.40 60.16 225.84 C 59.37 222.13 61.47 217.52 58.41 214.59 C 58.33 194.60 58.36 174.60 58.40 154.60 C 61.83 158.53 59.19 164.30 60.25 169.01 C 62.96 165.77 62.05 161.20 63.51 157.53 C 65.49 156.65 67.46 155.74 69.44 154.88 C 69.74 154.97 70.34 155.17 70.64 155.26 C 71.87 151.28 76.36 152.21 79.49 151.21 C 80.11 150.30 80.63 149.33 81.31 148.46 C 81.66 148.74 82.35 149.29 82.70 149.56 Z" />
</g>
<g id="#1b6ffcff">
<path fill="#1b6ffc" opacity="1.00" d=" M 387.91 48.98 C 389.94 48.46 390.15 45.72 392.17 45.20 C 395.22 44.81 398.35 45.15 401.35 44.30 C 417.19 45.42 432.08 54.06 442.05 66.31 C 439.29 68.16 437.93 71.66 434.66 72.78 C 431.93 73.60 430.41 76.03 428.50 77.93 C 428.43 78.64 428.39 79.35 428.38 80.06 C 425.40 81.01 422.10 80.73 419.35 82.42 C 414.83 77.36 408.78 73.59 402.11 72.18 C 396.91 71.09 391.58 71.80 386.33 71.53 C 385.74 71.23 384.55 70.61 383.95 70.31 C 371.30 70.05 358.63 70.34 345.97 70.15 C 344.74 69.81 342.68 70.57 342.08 69.10 C 347.86 68.67 353.84 69.30 359.42 67.37 C 362.74 65.57 365.30 62.73 367.48 59.71 C 368.42 60.10 369.34 60.57 370.28 60.98 C 370.32 59.83 370.31 58.68 370.43 57.53 C 370.93 57.32 371.92 56.89 372.42 56.68 C 372.10 56.14 371.79 55.60 371.48 55.06 C 373.51 52.03 377.58 52.68 380.22 50.64 C 380.30 49.91 380.38 49.18 380.46 48.46 C 383.00 47.93 385.42 50.16 387.91 48.98 Z" />
</g>
<g id="#1c64fcff">
<path fill="#1c64fc" opacity="1.00" d=" M 434.66 72.78 C 437.93 71.66 439.29 68.16 442.05 66.31 C 447.01 72.74 450.78 80.10 452.84 87.96 C 455.53 96.73 454.73 105.97 454.83 115.00 C 454.81 133.66 454.94 152.31 454.81 170.96 L 453.94 170.98 C 454.13 157.97 453.85 144.95 453.98 131.93 C 453.87 130.59 454.15 129.05 453.19 127.95 C 451.97 135.97 454.83 144.83 450.19 152.12 C 448.33 154.38 449.12 157.19 449.74 159.75 C 447.24 156.82 443.45 155.83 440.32 153.80 C 439.02 152.84 437.57 154.05 436.23 154.23 C 434.82 153.25 433.58 152.03 432.04 151.27 C 431.76 152.15 431.52 153.04 431.25 153.92 C 430.46 153.31 429.70 152.64 428.95 151.99 C 428.87 136.30 428.75 120.61 428.74 104.92 C 428.79 103.53 428.52 102.14 427.66 101.03 C 426.74 94.24 423.91 87.63 419.35 82.42 C 422.10 80.73 425.40 81.01 428.38 80.06 C 428.39 79.35 428.43 78.64 428.50 77.93 C 430.41 76.03 431.93 73.60 434.66 72.78 Z" />
</g>
<g id="#04befeff">
<path fill="#04befe" opacity="1.00" d=" M 221.29 105.12 C 224.22 97.49 234.16 93.78 241.34 97.63 C 248.93 101.03 252.28 111.45 247.64 118.48 C 246.26 121.55 243.01 123.10 240.57 124.91 C 240.59 128.88 240.53 132.85 240.63 136.83 C 236.99 137.31 233.25 136.90 229.58 137.03 C 229.52 132.88 229.60 128.73 229.55 124.57 C 222.06 121.82 217.76 112.44 221.29 105.12 Z" />
</g>
<g id="#0d48fdff">
<path fill="#0d48fd" opacity="1.00" d=" M 427.66 101.03 C 428.52 102.14 428.79 103.53 428.74 104.92 C 428.75 120.61 428.87 136.30 428.95 151.99 C 428.96 164.87 428.66 177.76 429.29 190.63 C 428.88 203.50 429.36 216.38 429.24 229.26 C 431.31 229.05 433.26 230.76 435.20 229.48 C 437.90 229.60 439.38 234.24 442.45 232.44 C 444.85 231.67 442.85 229.46 442.33 228.06 C 444.97 227.95 448.93 229.47 450.39 226.37 C 452.25 222.18 453.32 217.60 453.75 213.04 C 453.89 199.02 453.68 185.00 453.94 170.98 L 454.81 170.96 C 454.77 212.30 454.86 253.64 454.81 294.98 C 455.19 305.37 452.22 315.61 447.67 324.86 C 446.45 325.40 445.52 323.99 444.55 323.51 C 437.87 318.79 430.58 314.67 424.09 309.89 C 426.07 305.50 427.70 300.86 427.69 295.99 C 427.62 231.00 427.78 166.01 427.66 101.03 Z" />
</g>
<g id="#1756fdff">
<path fill="#1756fd" opacity="1.00" d=" M 453.19 127.95 C 454.15 129.05 453.87 130.59 453.98 131.93 C 453.85 144.95 454.13 157.97 453.94 170.98 C 453.68 185.00 453.89 199.02 453.75 213.04 C 453.32 217.60 452.25 222.18 450.39 226.37 C 448.93 229.47 444.97 227.95 442.33 228.06 C 442.85 229.46 444.85 231.67 442.45 232.44 C 439.38 234.24 437.90 229.60 435.20 229.48 C 433.26 230.76 431.31 229.05 429.24 229.26 C 429.36 216.38 428.88 203.50 429.29 190.63 C 428.66 177.76 428.96 164.87 428.95 151.99 C 429.70 152.64 430.46 153.31 431.25 153.92 C 431.52 153.04 431.76 152.15 432.04 151.27 C 433.58 152.03 434.82 153.25 436.23 154.23 C 437.57 154.05 439.02 152.84 440.32 153.80 C 443.45 155.83 447.24 156.82 449.74 159.75 C 449.12 157.19 448.33 154.38 450.19 152.12 C 454.83 144.83 451.97 135.97 453.19 127.95 Z" />
</g>
<g id="#0a2648ff">
<path fill="#0a2648" opacity="1.00" d=" M 193.25 150.43 C 220.51 150.13 247.80 150.34 275.07 150.31 C 299.25 150.73 321.15 171.37 322.52 195.60 C 322.75 207.51 322.72 219.45 322.50 231.36 C 321.30 254.97 300.61 275.68 277.00 276.78 C 250.00 276.88 223.01 276.79 196.01 276.83 C 170.93 277.15 148.22 254.98 147.71 229.95 C 147.76 218.64 147.62 207.33 147.78 196.03 C 149.08 172.41 169.64 151.84 193.25 150.43 M 190.44 195.51 C 186.82 197.15 183.94 200.84 184.06 204.92 C 184.17 208.96 183.79 212.99 184.07 217.03 C 184.26 219.77 183.50 222.70 184.74 225.28 C 186.59 230.02 192.14 233.22 197.14 231.74 C 201.72 230.88 205.14 226.57 205.37 221.99 C 205.37 216.01 205.39 210.03 205.36 204.06 C 204.75 197.13 196.69 192.67 190.44 195.51 M 271.33 195.42 C 267.82 196.76 265.04 200.15 264.94 203.98 C 264.74 210.00 264.88 216.04 264.86 222.06 C 264.72 228.23 271.27 232.99 277.14 231.95 C 281.98 231.35 286.17 226.99 286.26 222.06 C 286.23 216.05 286.30 210.04 286.22 204.04 C 285.66 197.14 277.59 192.54 271.33 195.42 Z" />
</g>
<g id="#058cfeff">
<path fill="#058cfe" opacity="1.00" d=" M 83.14 189.18 C 84.16 186.68 83.52 183.62 85.51 181.55 C 85.55 201.56 85.57 221.58 85.50 241.59 C 82.75 245.75 83.80 251.22 82.54 255.92 C 81.96 254.34 81.41 252.74 80.74 251.20 C 78.40 252.96 79.36 255.52 80.48 257.69 C 74.94 260.32 68.58 260.42 63.01 262.96 C 61.96 265.40 62.42 268.35 61.56 270.92 C 60.31 269.26 59.45 267.36 58.40 265.58 C 58.35 248.59 58.37 231.59 58.41 214.59 C 61.47 217.52 59.37 222.13 60.16 225.84 C 62.41 225.40 61.94 222.68 62.02 220.99 C 61.98 217.06 61.60 212.08 65.13 209.42 C 66.03 210.16 66.83 211.02 67.80 211.69 C 70.37 211.14 70.84 208.55 71.58 206.44 C 73.77 204.25 76.39 202.54 79.20 201.23 C 79.83 199.52 80.15 197.71 80.65 195.97 C 81.16 196.39 82.20 197.22 82.72 197.64 C 82.71 194.82 81.91 191.87 83.14 189.18 Z" />
</g>
<g id="#0575feff">
<path fill="#0575fe" opacity="1.00" d=" M 120.52 202.96 C 120.21 194.55 127.35 187.24 135.62 186.59 C 135.72 190.70 134.30 194.84 134.64 199.02 C 134.95 212.54 133.78 226.19 135.75 239.59 C 127.92 239.48 121.20 232.61 120.61 224.95 C 120.45 217.62 120.47 210.29 120.52 202.96 Z" />
</g>
<g id="#065cfeff">
<path fill="#065cfe" opacity="1.00" d=" M 335.52 195.31 C 335.55 192.41 333.98 189.25 334.71 186.56 C 340.70 187.46 346.57 191.09 348.53 197.05 C 349.90 200.56 349.49 204.37 349.58 208.05 C 349.52 213.71 349.71 219.38 349.48 225.04 C 348.98 232.81 341.94 239.26 334.26 239.65 C 334.62 236.45 335.54 233.33 335.55 230.11 C 335.54 218.51 335.60 206.91 335.52 195.31 Z" />
</g>
<g id="#93f5fdff">
<path fill="#93f5fd" opacity="1.00" d=" M 190.44 195.51 C 196.69 192.67 204.75 197.13 205.36 204.06 C 205.39 210.03 205.37 216.01 205.37 221.99 C 205.14 226.57 201.72 230.88 197.14 231.74 C 192.14 233.22 186.59 230.02 184.74 225.28 C 183.50 222.70 184.26 219.77 184.07 217.03 C 183.79 212.99 184.17 208.96 184.06 204.92 C 183.94 200.84 186.82 197.15 190.44 195.51 Z" />
<path fill="#93f5fd" opacity="1.00" d=" M 271.33 195.42 C 277.59 192.54 285.66 197.14 286.22 204.04 C 286.30 210.04 286.23 216.05 286.26 222.06 C 286.17 226.99 281.98 231.35 277.14 231.95 C 271.27 232.99 264.72 228.23 264.86 222.06 C 264.88 216.04 264.74 210.00 264.94 203.98 C 265.04 200.15 267.82 196.76 271.33 195.42 Z" />
</g>
<g id="#067efeff">
<path fill="#067efe" opacity="1.00" d=" M 82.54 255.92 C 83.80 251.22 82.75 245.75 85.50 241.59 C 85.63 260.34 85.39 279.09 85.63 297.84 C 86.19 303.39 88.01 308.87 91.18 313.49 C 89.27 315.76 87.23 318.59 84.00 318.84 C 82.27 318.14 80.46 315.30 78.56 317.16 C 78.85 318.48 79.35 319.74 79.65 321.05 C 77.54 322.75 75.66 319.75 73.54 319.56 C 73.46 323.82 76.07 327.65 75.92 331.91 C 75.50 333.36 74.61 334.61 73.91 335.94 C 63.99 325.60 58.66 311.28 58.37 297.04 C 58.40 286.56 58.35 276.07 58.40 265.58 C 59.45 267.36 60.31 269.26 61.56 270.92 C 62.42 268.35 61.96 265.40 63.01 262.96 C 68.58 260.42 74.94 260.32 80.48 257.69 C 79.36 255.52 78.40 252.96 80.74 251.20 C 81.41 252.74 81.96 254.34 82.54 255.92 Z" />
</g>
<g id="#0e69fdff">
<path fill="#0e69fd" opacity="1.00" d=" M 375.94 252.17 C 377.61 249.32 381.56 248.72 383.82 251.23 C 385.29 253.78 384.05 256.45 383.73 259.09 C 382.75 262.63 382.24 266.28 381.28 269.82 C 381.31 272.68 380.27 276.49 376.95 276.93 C 374.08 277.75 371.21 274.80 371.84 272.00 C 373.32 265.42 374.50 258.78 375.94 252.17 Z" />
<path fill="#0e69fd" opacity="1.00" d=" M 341.36 259.38 C 343.04 258.55 344.85 259.91 346.10 260.93 C 349.83 266.49 353.98 271.75 357.78 277.27 C 359.54 281.15 353.70 285.77 350.59 282.44 C 346.69 277.03 342.54 271.80 338.57 266.43 C 336.41 263.95 338.37 260.04 341.36 259.38 Z" />
</g>
<g id="#0e5efdff">
<path fill="#0e5efd" opacity="1.00" d=" M 407.51 267.61 C 410.22 266.45 413.72 269.05 413.33 272.04 C 413.59 275.13 410.37 276.57 408.44 278.34 C 403.87 281.68 399.81 285.75 394.98 288.70 C 392.56 288.43 389.84 286.66 390.04 283.95 C 389.82 280.99 392.89 279.56 394.67 277.75 C 399.02 274.46 402.96 270.59 407.51 267.61 Z" />
</g>
<g id="#0e64fdff">
<path fill="#0e64fd" opacity="1.00" d=" M 362.34 301.09 C 361.47 295.14 368.42 290.20 373.69 293.30 C 383.25 299.44 392.62 305.89 402.05 312.24 C 400.63 313.36 399.44 314.92 397.68 315.51 C 394.95 315.60 392.36 313.96 389.61 314.52 C 388.19 316.76 387.38 319.46 385.26 321.20 C 383.73 322.41 382.68 324.02 381.68 325.66 C 378.98 327.51 376.45 329.72 374.61 332.44 C 374.18 334.71 373.22 336.73 371.70 338.47 C 371.51 339.89 371.52 341.39 370.41 342.49 C 367.71 328.69 365.16 314.88 362.34 301.09 Z" />
</g>
<g id="#106cfdff">
<path fill="#106cfd" opacity="1.00" d=" M 322.34 295.24 C 328.67 294.17 335.45 295.11 341.96 294.79 C 345.09 294.22 348.44 296.64 348.20 299.98 C 347.62 301.88 346.07 303.66 343.98 303.78 C 337.07 303.94 330.16 303.80 323.25 303.77 C 319.19 302.93 318.35 296.79 322.34 295.24 Z" />
</g>
<g id="#0e55fdff">
<path fill="#0e55fd" opacity="1.00" d=" M 397.68 315.51 C 399.44 314.92 400.63 313.36 402.05 312.24 C 415.11 320.99 428.44 329.38 441.42 338.22 C 439.73 338.49 438.04 338.78 436.38 339.14 C 436.84 339.81 437.30 340.49 437.77 341.18 C 436.26 343.52 433.13 344.78 430.51 343.62 C 429.87 344.91 428.67 345.61 427.40 346.17 C 427.38 347.31 427.72 348.46 428.44 349.38 C 429.29 349.54 430.15 349.70 431.01 349.85 C 430.82 350.15 430.44 350.76 430.25 351.06 C 429.58 351.33 428.92 351.58 428.25 351.83 C 428.33 352.89 428.53 353.94 428.63 355.01 C 427.76 355.76 426.88 356.49 426.00 357.21 C 425.53 359.05 426.91 360.52 427.55 362.11 C 427.19 362.27 426.46 362.59 426.09 362.75 C 422.72 361.03 419.11 359.18 415.20 360.18 C 415.35 363.04 418.14 362.69 420.24 362.83 C 422.85 364.38 422.85 367.89 422.10 370.48 C 420.68 369.91 419.36 368.61 417.74 369.15 C 417.04 370.75 416.94 372.63 415.88 374.06 C 414.38 374.30 412.86 374.31 411.37 374.55 C 409.68 376.38 410.39 379.77 408.06 381.13 C 406.10 382.39 404.59 379.87 403.01 379.10 C 402.49 381.54 403.54 383.75 404.51 385.92 C 403.62 387.85 400.66 386.93 399.84 388.98 C 400.92 390.03 402.23 390.79 403.50 391.61 C 400.11 396.18 396.68 400.72 393.18 405.21 C 390.90 407.94 386.53 408.71 383.70 406.34 C 380.62 404.18 381.31 400.21 380.20 397.06 C 377.26 378.82 373.81 360.64 370.41 342.49 C 371.52 341.39 371.51 339.89 371.70 338.47 C 373.22 336.73 374.18 334.71 374.61 332.44 C 376.45 329.72 378.98 327.51 381.68 325.66 C 382.68 324.02 383.73 322.41 385.26 321.20 C 387.38 319.46 388.19 316.76 389.61 314.52 C 392.36 313.96 394.95 315.60 397.68 315.51 Z" />
</g>
<g id="#046bfeff">
<path fill="#046bfe" opacity="1.00" d=" M 84.00 318.84 C 87.23 318.59 89.27 315.76 91.18 313.49 C 96.87 321.52 106.10 327.18 116.08 327.35 C 148.12 327.37 180.17 327.28 212.21 327.39 C 204.70 329.54 196.74 327.55 189.06 328.43 C 192.86 329.66 197.00 328.30 200.90 329.18 C 201.00 334.95 193.49 333.88 189.61 334.22 C 189.67 335.02 189.74 335.82 189.82 336.62 C 187.09 334.64 184.30 337.09 181.63 337.88 C 179.66 338.68 177.52 338.21 175.50 337.99 C 175.78 338.55 176.04 339.12 176.29 339.71 C 174.58 342.85 172.02 345.47 170.32 348.56 C 170.97 348.79 172.27 349.23 172.92 349.46 C 168.75 351.95 163.65 352.21 158.95 352.97 C 143.60 353.70 128.13 352.20 112.87 354.43 C 98.12 353.88 83.88 346.71 73.91 335.94 C 74.61 334.61 75.50 333.36 75.92 331.91 C 76.07 327.65 73.46 323.82 73.54 319.56 C 75.66 319.75 77.54 322.75 79.65 321.05 C 79.35 319.74 78.85 318.48 78.56 317.16 C 80.46 315.30 82.27 318.14 84.00 318.84 Z" />
</g>
<g id="#0655feff">
<path fill="#0655fe" opacity="1.00" d=" M 212.21 327.39 C 259.28 327.36 306.37 327.25 353.44 327.43 C 354.92 336.49 356.90 345.45 358.29 354.53 C 299.56 354.80 240.76 354.49 182.00 354.62 C 158.96 354.43 135.89 354.80 112.87 354.43 C 128.13 352.20 143.60 353.70 158.95 352.97 C 163.65 352.21 168.75 351.95 172.92 349.46 C 172.27 349.23 170.97 348.79 170.32 348.56 C 172.02 345.47 174.58 342.85 176.29 339.71 C 176.04 339.12 175.78 338.55 175.50 337.99 C 177.52 338.21 179.66 338.68 181.63 337.88 C 184.30 337.09 187.09 334.64 189.82 336.62 C 189.74 335.82 189.67 335.02 189.61 334.22 C 193.49 333.88 201.00 334.95 200.90 329.18 C 197.00 328.30 192.86 329.66 189.06 328.43 C 196.74 327.55 204.70 329.54 212.21 327.39 Z" />
</g>
<g id="#0849fdff">
<path fill="#0849fd" opacity="1.00" d=" M 441.42 338.22 C 446.84 341.49 452.05 345.15 457.43 348.52 C 459.71 349.89 461.98 352.05 461.97 354.92 C 462.30 358.00 460.19 361.26 457.19 362.10 C 450.39 363.97 443.58 365.90 436.91 368.11 C 434.98 368.13 433.82 370.22 434.24 371.96 C 441.39 382.45 447.96 393.30 454.83 403.98 C 455.87 407.17 455.26 411.33 452.29 413.30 C 447.67 416.35 443.29 419.91 438.43 422.49 C 435.54 423.64 431.80 422.67 430.17 419.94 C 423.49 409.51 416.91 399.01 410.28 388.55 C 409.54 387.42 408.46 387.00 407.04 387.28 C 405.55 388.44 404.83 390.28 403.50 391.61 C 402.23 390.79 400.92 390.03 399.84 388.98 C 400.66 386.93 403.62 387.85 404.51 385.92 C 403.54 383.75 402.49 381.54 403.01 379.10 C 404.59 379.87 406.10 382.39 408.06 381.13 C 410.39 379.77 409.68 376.38 411.37 374.55 C 412.86 374.31 414.38 374.30 415.88 374.06 C 416.94 372.63 417.04 370.75 417.74 369.15 C 419.36 368.61 420.68 369.91 422.10 370.48 C 422.85 367.89 422.85 364.38 420.24 362.83 C 418.14 362.69 415.35 363.04 415.20 360.18 C 419.11 359.18 422.72 361.03 426.09 362.75 C 426.46 362.59 427.19 362.27 427.55 362.11 C 426.91 360.52 425.53 359.05 426.00 357.21 C 426.88 356.49 427.76 355.76 428.63 355.01 C 428.53 353.94 428.33 352.89 428.25 351.83 C 428.92 351.58 429.58 351.33 430.25 351.06 C 430.44 350.76 430.82 350.15 431.01 349.85 C 430.15 349.70 429.29 349.54 428.44 349.38 C 427.72 348.46 427.38 347.31 427.40 346.17 C 428.67 345.61 429.87 344.91 430.51 343.62 C 433.13 344.78 436.26 343.52 437.77 341.18 C 437.30 340.49 436.84 339.81 436.38 339.14 C 438.04 338.78 439.73 338.49 441.42 338.22 Z" />
</g>
<g id="#092546ff">
<path fill="#092546" opacity="1.00" d=" M 100.69 379.70 C 107.21 371.51 117.69 367.07 128.06 367.18 C 201.69 367.10 275.33 367.15 348.97 367.15 C 352.85 367.37 356.82 366.85 360.66 367.42 C 361.42 371.67 362.37 375.88 363.02 380.17 C 284.00 380.24 204.97 380.16 125.95 380.20 C 118.47 380.43 111.23 385.29 108.58 392.38 C 102.83 408.16 96.22 423.59 90.50 439.38 C 88.76 446.79 95.85 453.41 103.00 453.32 C 203.67 453.28 304.34 453.33 405.00 453.30 C 409.09 453.23 413.48 453.52 417.16 451.43 C 420.92 449.40 423.34 445.15 423.19 440.88 C 422.19 437.25 420.96 433.67 419.49 430.24 C 419.75 430.23 420.27 430.20 420.53 430.18 C 424.72 434.82 431.00 437.67 437.32 436.73 C 439.43 442.78 440.27 449.61 437.76 455.68 C 435.13 463.70 428.15 470.02 420.13 472.40 C 414.73 474.42 408.76 473.70 403.09 473.85 C 304.73 473.88 206.36 473.85 108.00 473.85 C 104.38 473.80 100.73 474.02 97.15 473.36 C 85.89 471.80 75.89 462.63 74.33 451.20 C 73.34 446.87 74.30 442.48 75.61 438.34 C 80.92 425.01 86.38 411.73 91.64 398.38 C 94.51 392.09 96.21 385.12 100.69 379.70 Z" />
</g>
<g id="#0a2548ff">
<path fill="#0a2548" opacity="1.00" d=" M 134.30 392.34 C 141.16 391.83 148.12 392.26 155.02 392.16 C 157.36 391.92 159.43 393.71 159.77 396.00 C 158.97 398.98 158.10 401.94 157.21 404.90 C 156.31 406.76 154.16 407.90 152.11 407.93 C 145.07 407.91 138.03 407.91 130.99 407.91 C 128.84 407.74 126.46 405.33 127.64 403.13 C 129.36 399.35 129.40 393.45 134.30 392.34 Z" />
<path fill="#0a2548" opacity="1.00" d=" M 223.29 392.40 C 229.48 391.78 235.79 392.33 242.02 392.13 C 244.53 391.88 247.57 392.51 248.78 394.99 C 248.98 397.66 248.83 400.35 248.86 403.04 C 249.10 405.68 246.55 407.89 244.03 407.91 C 237.02 407.91 230.00 407.96 222.99 407.88 C 220.03 407.70 217.95 404.80 218.94 401.95 C 220.06 398.62 218.79 393.41 223.29 392.40 Z" />
<path fill="#0a2548" opacity="1.00" d=" M 323.50 421.65 C 330.33 421.45 337.19 421.63 344.04 421.56 C 345.49 421.45 346.76 422.35 347.97 423.03 C 350.04 424.93 349.59 427.91 350.71 430.28 C 351.07 432.16 352.32 434.27 351.16 436.09 C 350.21 437.87 347.90 438.35 346.04 438.22 C 339.05 438.04 332.01 438.48 325.06 437.98 C 320.40 436.94 321.35 431.45 320.05 427.97 C 318.80 425.28 320.65 422.11 323.50 421.65 Z" />
</g>
<g id="#092547ff">
<path fill="#092547" opacity="1.00" d=" M 179.27 392.26 C 186.20 392.00 193.14 392.22 200.07 392.13 C 203.00 392.15 205.35 395.17 204.14 397.99 C 203.44 401.59 203.65 407.12 198.89 407.82 C 191.91 408.04 184.92 407.85 177.94 407.92 C 175.40 408.29 172.53 405.78 173.46 403.14 C 174.63 399.27 174.22 393.24 179.27 392.26 Z" />
</g>
<g id="#0a2649ff">
<path fill="#0a2649" opacity="1.00" d=" M 268.31 392.22 C 274.90 392.06 281.49 392.16 288.09 392.17 C 290.53 392.13 292.98 393.56 293.65 396.01 C 293.99 398.66 294.21 401.33 294.59 403.98 C 294.47 406.29 292.25 407.98 290.02 407.89 C 282.74 407.87 275.43 408.08 268.17 407.77 C 263.68 406.73 264.68 401.44 264.31 398.00 C 263.83 395.37 265.58 392.57 268.31 392.22 Z" />
<path fill="#0a2649" opacity="1.00" d=" M 312.30 392.39 C 319.17 391.81 326.15 392.29 333.06 392.15 C 336.09 392.22 338.51 394.87 338.72 397.84 C 339.26 401.10 342.01 406.00 337.46 407.63 C 329.75 408.17 321.88 407.98 314.16 407.73 C 309.70 406.70 310.32 401.62 309.32 398.20 C 308.40 395.85 309.78 392.91 312.30 392.39 Z" />
</g>
<g id="#092548ff">
<path fill="#092548" opacity="1.00" d=" M 123.42 421.61 C 129.97 421.52 136.52 421.57 143.08 421.59 C 144.96 421.39 146.82 422.42 147.78 424.02 C 148.39 426.47 147.26 428.83 146.50 431.10 C 145.96 433.33 145.46 435.92 143.43 437.31 C 141.51 438.47 139.20 438.17 137.07 438.21 C 131.04 438.14 124.99 438.30 118.97 438.11 C 116.52 438.01 114.63 435.28 115.85 433.03 C 117.52 428.82 117.97 422.52 123.42 421.61 Z" />
<path fill="#092548" opacity="1.00" d=" M 168.53 421.63 C 175.32 421.51 182.11 421.57 188.89 421.60 C 191.59 421.37 194.41 424.15 193.42 426.90 C 192.21 430.73 193.03 436.89 187.97 438.04 C 180.66 438.43 173.31 438.10 165.98 438.19 C 163.21 438.42 160.69 435.51 161.89 432.86 C 163.35 428.75 163.13 422.60 168.53 421.63 Z" />
<path fill="#092548" opacity="1.00" d=" M 213.53 421.72 C 241.69 421.37 269.87 421.67 298.03 421.56 C 300.99 421.34 303.77 423.61 304.15 426.56 C 304.31 429.41 305.39 432.15 305.23 435.02 C 304.67 436.85 302.98 438.16 301.06 438.20 C 271.69 438.22 242.32 438.16 212.95 438.20 C 210.16 438.49 207.04 435.84 208.09 432.94 C 209.30 428.95 208.27 422.94 213.53 421.72 Z" />
</g>
<g id="#0a2549ff">
<path fill="#0a2549" opacity="1.00" d=" M 368.49 421.73 C 375.78 421.34 383.16 421.62 390.48 421.69 C 395.55 422.71 395.58 428.58 397.41 432.40 C 398.76 434.90 396.87 438.13 394.05 438.18 C 387.01 438.26 379.98 438.16 372.94 438.21 C 370.27 438.19 367.65 436.13 367.47 433.38 C 366.95 429.95 364.04 426.34 366.25 423.06 C 366.96 422.55 367.70 422.11 368.49 421.73 Z" />
</g>
</svg>
